# xmcd CD database file
#
# Track frame offsets:
#	150
#	15993
#	29033
#	42269
#	54817
#	65623
#	86982
#	98809
#	115110
#	164926
#	181846
#	193390
#	203549
#	226874
#	251257
#
# Disc length: 3649 seconds
#
# Revision: 1
# Processed by: cddbd v1.5.1PL0 Copyright (c) Steve Scherf et al.
# Submitted via: CDex 1.51
#
DISCID=c60e3f0f
DTITLE=Los Gatos - Beat Nro. 1
DYEAR=1969
DGENRE=Beat
TTITLE0=Suena Y Corre
TTITLE1=Hogar
TTITLE2=Donde Esta, Como Fue
TTITLE3=El Otro Yo Del Senor Negocios
TTITLE4=Flores Y Cartas
TTITLE5=Lagrimas De Maria
TTITLE6=Soy De Cualquier Lugar
TTITLE7=Escuchame, Alumbrame
TTITLE8=Fuera De La Ley
TTITLE9=Escuchame, Alumbrame (Version Monoaural) Bonus Track
TTITLE10=Mama Rock (Bonus Track)
TTITLE11=Campo Para Tres (Bonus Track)
TTITLE12=Cancion Para Un Ladron (Bonus Track)
TTITLE13=Cancion Para Un Reventado (Bonus Track)
TTITLE14=La Casa De Diarios Viejos (Bonus Track)
EXTD=YEAR: 1969
EXTT0=
EXTT1=
EXTT2=
EXTT3=
EXTT4=
EXTT5=
EXTT6=
EXTT7=
EXTT8=
EXTT9=
EXTT10=
EXTT11=
EXTT12=
EXTT13=
EXTT14=
PLAYORDER=
